<?xml version="1.0" encoding="UTF-8" standalone="no"?>
<svg
   xmlns:dc="http://purl.org/dc/elements/1.1/"
   xmlns:cc="http://creativecommons.org/ns#"
   xmlns:rdf="http://www.w3.org/1999/02/22-rdf-syntax-ns#"
   xmlns:svg="http://www.w3.org/2000/svg"
   xmlns="http://www.w3.org/2000/svg"
   xmlns:sodipodi="http://sodipodi.sourceforge.net/DTD/sodipodi-0.dtd"
   xmlns:inkscape="http://www.inkscape.org/namespaces/inkscape"
   inkscape:version="1.0 (4035a4fb49, 2020-05-01)"
   sodipodi:docname="user-circle.svg"
   id="svg4"
   version="1.1"
   viewBox="0 0 256 256"
   height="256"
   width="256">
  <metadata
     id="metadata10">
    <rdf:RDF>
      <cc:Work
         rdf:about="">
        <dc:format>image/svg+xml</dc:format>
        <dc:type
           rdf:resource="http://purl.org/dc/dcmitype/StillImage" />
      </cc:Work>
    </rdf:RDF>
  </metadata>
  <defs
     id="defs8" />
  <sodipodi:namedview
     inkscape:current-layer="svg4"
     inkscape:window-maximized="1"
     inkscape:window-y="256"
     inkscape:window-x="0"
     inkscape:cy="133.18947"
     inkscape:cx="129.78421"
     inkscape:zoom="12.041667"
     showgrid="false"
     id="namedview6"
     inkscape:window-height="736"
     inkscape:window-width="1366"
     inkscape:pageshadow="2"
     inkscape:pageopacity="0"
     guidetolerance="10"
     gridtolerance="10"
     objecttolerance="10"
     borderopacity="1"
     bordercolor="#666666"
     pagecolor="#ffffff" />
  <path
     style="stroke-width:12.8"
     id="path2"
     d="M 128,0 C 58.6112,0 0,58.6112 0,128 0,197.3888 58.6112,256 128,256 197.3888,256 256,197.3888 256,128 256,58.6112 197.3888,0 128,0 Z m 0,64 c 22.1056,0 38.4,16.2816 38.4,38.4 0,22.1184 -16.2944,38.4 -38.4,38.4 -22.0928,0 -38.4,-16.2816 -38.4,-38.4 C 89.6,80.2816 105.9072,64 128,64 Z M 62.6432,189.0816 c 11.4816,-16.896 30.6304,-28.16 52.5568,-28.16 h 25.6 c 21.9392,0 41.0752,11.264 52.5568,28.16 C 176.9984,206.592 153.792,217.6 128,217.6 c -25.792,0 -48.9984,-11.008 -65.3568,-28.5184 z" />
</svg>
